<svg width="24" height="22" viewBox="0 0 24 22" fill="none" xmlns="http://www.w3.org/2000/svg">
<path d="M17.4004 1C20.5459 1.0002 22.9999 3.4437 23 6.59375C23 8.52464 22.1369 10.3607 20.4131 12.4678C18.6783 14.5882 16.178 16.8595 13.0684 19.6768L13.0674 19.6777L12 20.6475L10.9326 19.6777L10.9316 19.6768L8.71582 17.6602C6.6193 15.7335 4.88802 14.0581 3.58691 12.4678C1.86312 10.3607 1 8.52464 1 6.59375C1.00013 3.4437 3.45412 1.0002 6.59961 1C8.38563 1 10.1163 1.83603 11.2412 3.14551L12 4.02832L12.7588 3.14551C13.8837 1.83603 15.6144 1 17.4004 1Z" stroke="#242424" stroke-width="2"/>
</svg>
