<svg width="21" height="24" viewBox="0 0 21 24" fill="none" xmlns="http://www.w3.org/2000/svg">
<path d="M10.5 1.5C11.4946 1.5 12.4484 1.89509 13.1517 2.59835C13.8549 3.30161 14.25 4.25544 14.25 5.25V6H6.75V5.25C6.75 4.25544 7.14509 3.30161 7.84835 2.59835C8.55161 1.89509 9.50544 1.5 10.5 1.5ZM15.75 6V5.25C15.75 3.85761 15.1969 2.52226 14.2123 1.53769C13.2277 0.553123 11.8924 0 10.5 0C9.10761 0 7.77226 0.553123 6.78769 1.53769C5.80312 2.52226 5.25 3.85761 5.25 5.25V6H0V21C0 21.7956 0.316071 22.5587 0.87868 23.1213C1.44129 23.6839 2.20435 24 3 24H18C18.7956 24 19.5587 23.6839 20.1213 23.1213C20.6839 22.5587 21 21.7956 21 21V6H15.75Z" fill="#242424"/>
</svg>
