<svg width="60" height="60" viewBox="0 0 60 60" fill="none" xmlns="http://www.w3.org/2000/svg">
<rect width="60" height="60" fill="#F9F8F4"/>
<path d="M35.4004 20C38.5459 20.0002 40.9999 22.4437 41 25.5938C41 27.5246 40.1369 29.3607 38.4131 31.4678C36.6783 33.5882 34.178 35.8595 31.0684 38.6768L31.0674 38.6777L30 39.6475L28.9326 38.6777L28.9316 38.6768L26.7158 36.6602C24.6193 34.7335 22.888 33.0581 21.5869 31.4678C19.8631 29.3607 19 27.5246 19 25.5938C19.0001 22.4437 21.4541 20.0002 24.5996 20C26.3856 20 28.1163 20.836 29.2412 22.1455L30 23.0283L30.7588 22.1455C31.8837 20.836 33.6144 20 35.4004 20Z" stroke="#242424" stroke-width="2"/>
</svg>
