<svg width="24" height="24" viewBox="0 0 24 24" fill="none" xmlns="http://www.w3.org/2000/svg">
<path d="M6.76667 0H16.5667C20.3 0 23.3333 3.03333 23.3333 6.76667V16.5667C23.3333 18.3613 22.6204 20.0824 21.3514 21.3514C20.0824 22.6204 18.3613 23.3333 16.5667 23.3333H6.76667C3.03333 23.3333 0 20.3 0 16.5667V6.76667C0 4.97204 0.712915 3.25091 1.98191 1.98191C3.25091 0.712915 4.97204 0 6.76667 0ZM6.53333 2.33333C5.41942 2.33333 4.35114 2.77583 3.56349 3.56349C2.77583 4.35114 2.33333 5.41942 2.33333 6.53333V16.8C2.33333 19.1217 4.21167 21 6.53333 21H16.8C17.9139 21 18.9822 20.5575 19.7699 19.7699C20.5575 18.9822 21 17.9139 21 16.8V6.53333C21 4.21167 19.1217 2.33333 16.8 2.33333H6.53333ZM17.7917 4.08333C18.1784 4.08333 18.5494 4.23698 18.8229 4.51047C19.0964 4.78396 19.25 5.15489 19.25 5.54167C19.25 5.92844 19.0964 6.29937 18.8229 6.57286C18.5494 6.84635 18.1784 7 17.7917 7C17.4049 7 17.034 6.84635 16.7605 6.57286C16.487 6.29937 16.3333 5.92844 16.3333 5.54167C16.3333 5.15489 16.487 4.78396 16.7605 4.51047C17.034 4.23698 17.4049 4.08333 17.7917 4.08333ZM11.6667 5.83333C13.2138 5.83333 14.6975 6.44792 15.7915 7.54188C16.8854 8.63584 17.5 10.1196 17.5 11.6667C17.5 13.2138 16.8854 14.6975 15.7915 15.7915C14.6975 16.8854 13.2138 17.5 11.6667 17.5C10.1196 17.5 8.63584 16.8854 7.54188 15.7915C6.44792 14.6975 5.83333 13.2138 5.83333 11.6667C5.83333 10.1196 6.44792 8.63584 7.54188 7.54188C8.63584 6.44792 10.1196 5.83333 11.6667 5.83333ZM11.6667 8.16667C10.7384 8.16667 9.84817 8.53542 9.19179 9.19179C8.53542 9.84817 8.16667 10.7384 8.16667 11.6667C8.16667 12.5949 8.53542 13.4852 9.19179 14.1415C9.84817 14.7979 10.7384 15.1667 11.6667 15.1667C12.5949 15.1667 13.4852 14.7979 14.1415 14.1415C14.7979 13.4852 15.1667 12.5949 15.1667 11.6667C15.1667 10.7384 14.7979 9.84817 14.1415 9.19179C13.4852 8.53542 12.5949 8.16667 11.6667 8.16667Z" fill="#242424"/>
</svg>
